<svg width="1665" height="259" viewBox="0 0 1665 259" fill="none" xmlns="http://www.w3.org/2000/svg">
<g clip-path="url(#clip0_516_14)">
<path d="M1598 83.939C1597.6 84.8723 1597.47 123.406 1597.6 169.672L1598 253.672H1627.33H1656.67L1657.07 167.939L1657.33 82.339H1628C1605.73 82.339 1598.4 82.739 1598 83.939Z" fill="#78BC61"/>
<path d="M1612.27 2.47232C1588 12.0723 1583.73 42.8723 1604.8 56.739C1625.07 70.339 1656.27 61.8057 1662.53 41.139C1668.93 19.4057 1654.27 1.27232 1629.33 0.0723228C1621.47 -0.194344 1617.73 0.205658 1612.27 2.47232Z" fill="#78BC61"/>
<path d="M1380 83.139C1380 83.939 1442.27 235.672 1447.47 247.272L1450.53 254.339H1480.53C1502.67 254.339 1510.8 253.939 1511.6 252.739C1512.13 251.806 1528.4 213.272 1547.47 167.006L1582.4 83.0056L1554.27 82.6057C1532.93 82.339 1526 82.739 1525.2 83.939C1524.67 84.8723 1514.67 108.339 1503.2 136.072C1490.8 165.939 1481.87 185.806 1481.33 184.739C1480.8 183.806 1471.47 160.339 1460.67 132.606L1440.93 82.339H1410.4C1393.73 82.339 1380 82.739 1380 83.139Z" fill="#78BC61"/>
<path d="M1254.67 81.6723C1236.93 84.4723 1212.8 92.8723 1205.73 98.6057C1204.53 99.539 1206.67 104.872 1214.13 119.939C1219.6 130.872 1224.53 139.672 1225.07 139.406C1225.6 139.139 1229.73 137.006 1234.27 134.606C1251.07 125.939 1276.27 123.539 1290.67 129.406C1298.93 132.739 1304.93 139.939 1306.27 148.072L1307.07 153.006H1282.53C1246 153.006 1228.93 156.472 1214.8 166.872C1207.87 172.072 1201.33 181.139 1198.67 189.539C1196.27 197.139 1197.47 217.539 1200.93 225.006C1212.53 250.606 1250.8 263.406 1284.27 253.006C1294.13 249.939 1303.07 243.939 1307.6 237.139L1310.53 232.739L1310.93 243.272L1311.33 253.672L1339.07 254.072L1366.8 254.339L1366.4 196.072L1366 137.672L1362.27 127.139C1354.13 103.939 1338.4 90.339 1312.13 83.539C1298.67 79.939 1270.27 79.0057 1254.67 81.6723ZM1306.67 191.672C1306.67 200.606 1304.8 205.139 1299.07 210.606C1293.6 215.806 1286.53 218.339 1277.33 218.339C1267.07 218.339 1259.87 214.872 1256.8 208.472C1254 202.472 1254.13 198.606 1257.33 193.406C1262 185.672 1267.73 184.072 1291.07 183.806L1306.67 183.672V191.672Z" fill="#78BC61"/>
<path d="M1070.8 29.139C1039.07 32.8723 1012.67 47.939 1001.47 69.0056C992.933 85.0056 991.333 106.739 997.467 123.006C1002.4 136.339 1018.53 150.606 1035.87 157.139C1040 158.606 1054.13 162.606 1067.33 165.806C1101.33 174.206 1111.2 177.672 1115.33 182.472C1119.87 188.072 1119.87 195.406 1115.2 200.872C1109.6 207.539 1100.4 209.406 1078.8 208.606C1057.07 207.806 1041.73 203.939 1022.93 194.739C1016.13 191.406 1010.27 189.006 1009.87 189.272C1008.67 190.472 990.667 232.072 990.667 233.539C990.667 235.806 1004.27 242.872 1017.6 247.539C1050.13 258.872 1091.73 261.272 1122.13 253.672C1141.33 248.739 1161.47 235.272 1170.53 221.272C1186.67 195.939 1183.2 162.339 1162.4 145.006C1148 133.006 1137.47 128.739 1097.33 119.139C1062.13 110.606 1056 107.406 1056 97.2723C1056 88.2056 1062 82.2056 1074.13 79.0056C1090.53 74.739 1113.47 77.6723 1137.07 87.139C1145.47 90.4723 1152.4 93.0056 1152.67 92.739C1153.73 91.6723 1170.67 50.0723 1170.67 48.4723C1170.67 45.4056 1152.67 38.2056 1132.67 33.139C1112 28.0723 1091.73 26.739 1070.8 29.139Z" fill="#78BC61"/>
<path d="M852.933 82.339C825.067 88.2057 801.733 105.672 790 129.406C781.6 146.606 779.2 166.872 783.467 187.406C789.733 218.606 815.067 244.072 848.933 253.272C862.533 256.872 889.333 257.272 904 253.939C930.267 248.072 954.267 229.939 965.2 207.672C981.2 175.006 976.267 135.806 952.933 110.739C928.933 85.0056 891.2 74.2057 852.933 82.339ZM893.467 130.739C899.867 133.806 906.267 140.206 909.733 146.872C913.6 154.472 914.533 175.272 911.467 184.739C906.933 198.206 895.333 207.406 881.333 208.606C866.267 210.072 853.2 203.006 846.533 190.072C841.333 179.939 840.667 160.339 845.2 148.606C848.533 139.939 857.2 131.806 866.4 128.872C872.133 127.139 888.133 128.206 893.467 130.739Z" fill="#78BC61"/>
<path d="M662.667 66.339V89.0057H650H637.333L637.6 111.272L638 133.672L650.4 134.072L662.667 134.472V168.072C662.667 204.872 663.867 214.339 670 226.339C676.8 239.672 691.067 249.939 709.333 254.472C718.533 256.739 743.6 256.739 753.333 254.472C763.2 252.072 773.333 247.672 773.2 245.806C773.2 245.006 770 235.672 766.133 225.006C761.067 210.872 758.667 205.806 757.2 206.206C740.533 210.872 740.133 211.006 734.533 209.006C731.467 207.939 727.6 205.272 726.133 203.272C723.467 199.672 723.333 197.539 722.933 166.872L722.533 134.339H742H761.333V111.672V89.0057H742H722.667L722.4 66.6057L722 44.339L692.4 43.939L662.667 43.6723V66.339Z" fill="#78BC61"/>
<path d="M529.467 81.6723C518.133 84.2056 505.6 90.2056 498.8 96.339L493.333 101.272V91.8056V82.339H464.667H436L436.267 167.939L436.667 253.672L466.267 254.072L495.867 254.339L496.267 205.406L496.667 156.339L500.133 148.872C504.133 140.472 509.6 135.672 519.067 132.472C526.933 129.806 531.067 129.806 539.467 132.339C547.333 134.606 552.4 139.406 555.6 147.672C557.6 152.872 557.867 160.206 558.4 204.072L558.8 254.339L588.4 254.072L618 253.672V197.006C618 138.072 617.733 134.606 612 119.272C606.267 103.939 591.467 89.939 574.667 84.2056C562.533 79.939 542 78.739 529.467 81.6723Z" fill="#78BC61"/>
<path d="M296 80.6057C270.8 84.6057 255.867 91.8056 239.6 107.539C208.133 137.806 206.667 192.472 236.267 225.539C254.933 246.472 286.8 258.606 318 256.472C372.267 252.739 408 217.272 408 167.139C408 125.139 379.467 91.539 335.867 82.339C324.267 79.939 305.333 79.0057 296 80.6057ZM324.4 129.806C331.6 132.206 339.733 139.672 343.067 146.739C346.8 154.472 348.267 166.872 346.8 176.339C344.667 190.339 337.867 200.472 327.067 205.806C319.6 209.539 302.533 209.272 295.2 205.406C287.067 201.139 280.4 193.006 277.867 184.206C274.8 173.539 275.733 154.472 279.733 146.872C283.2 140.206 292.933 131.272 298.933 129.406C305.6 127.272 317.467 127.406 324.4 129.806Z" fill="#78BC61"/>
<path d="M0 57.6723V82.339H53.0667C84.2667 82.339 108.4 83.0057 112 83.8057C120.533 85.6723 127.2 90.6057 131.6 97.939C134.667 103.272 135.333 105.806 135.333 114.339C135.333 125.672 132.4 132.872 125.333 138.739C116.933 145.806 112.267 146.339 53.7333 146.339H0L0.266667 199.939L0.666667 253.672H31.3333H62L62.4 224.872L62.6667 195.939L95.0667 195.272C123.2 194.739 128.533 194.339 137.2 191.806C176.8 180.072 198.667 152.872 198.667 115.006C198.667 79.8057 179.867 53.0057 146.133 40.339C128.8 33.8056 119.067 33.0057 57.2 33.0057H0V57.6723Z" fill="#78BC61"/>
</g>
<defs>
<clipPath id="clip0_516_14">
<rect width="1664.03" height="258.065" fill="white"/>
</clipPath>
</defs>
</svg>
